<?xml version="1.0" encoding="utf-8"?>
<!-- Generator: Adobe Illustrator 15.0.0, SVG Export Plug-In . SVG Version: 6.00 Build 0)  -->
<!DOCTYPE svg PUBLIC "-//W3C//DTD SVG 1.1//EN" "http://www.w3.org/Graphics/SVG/1.1/DTD/svg11.dtd">
<svg version="1.1" xmlns="http://www.w3.org/2000/svg" xmlns:xlink="http://www.w3.org/1999/xlink" x="0px" y="0px" width="600px"
	 height="600px" viewBox="0 0 600 600" enable-background="new 0 0 600 600" xml:space="preserve">
<g id="Layer_2">
</g>
<g id="Layer_3">
	<polygon fill="#070707" stroke="#070707" stroke-miterlimit="10" points="-2367,324.185 -2315.793,412.842 -2264.587,501.5 
		-2367,501.5 -2469.413,501.5 -2418.207,412.842 	"/>
	<g>
		<rect x="-2315.5" y="721.5" fill="#070707" stroke="#070707" stroke-miterlimit="10" width="48" height="208"/>
		<rect x="-2395.5" y="801.5" fill="#070707" stroke="#070707" stroke-miterlimit="10" width="208" height="48"/>
	</g>
	<g>
		<path fill="#FFAF1D" d="M351.258,300c0,28.544-23.138,51.678-51.679,51.678c-28.545,0-51.682-23.134-51.682-51.678
			c0-28.543,23.137-51.68,51.682-51.68C328.12,248.32,351.258,271.457,351.258,300z"/>
		<line fill="#FFAF1D" x1="153" y1="300" x2="446" y2="300"/>
		<path fill="#FFAF1D" d="M335.182,598.462l-70.111,0.146l34.929-304.74L335.182,598.462z"/>
		<path fill="#FFAF1D" d="M479.631,540.636l-60.645,35.179L296.867,294.439L479.631,540.636z"/>
		<path fill="#FFAF1D" d="M575.818,418.33l-34.934,60.791L294.442,296.502L575.818,418.33z"/>
		<path fill="#FFAF1D" d="M597.962,264.318l0.146,70.115L293.369,299.5L597.962,264.318z"/>
		<path fill="#FFAF1D" d="M540.136,119.869l35.183,60.647L293.943,302.633L540.136,119.869z"/>
		<path fill="#FFAF1D" d="M417.83,23.685l60.791,34.931L296.002,305.061L417.83,23.685z"/>
		<path fill="#FFAF1D" d="M263.822,1.537l70.111-0.144L299.002,306.13L263.822,1.537z"/>
		<path fill="#FFAF1D" d="M119.369,56.562l60.648-35.181l122.115,281.375L119.369,56.562z"/>
		<path fill="#FFAF1D" d="M23.186,181.668l34.93-60.791l246.447,182.62L23.186,181.668z"/>
		<path fill="#FFAF1D" d="M1.038,332.879l-0.146-70.113l304.737,34.932L1.038,332.879z"/>
		<path fill="#FFAF1D" d="M58.864,480.132l-35.179-60.65l281.375-122.114L58.864,480.132z"/>
		<path fill="#FFAF1D" d="M181.17,573.512l-60.791-34.93l182.618-246.446L181.17,573.512z"/>
	</g>
</g>
</svg>
