<?xml version="1.0" encoding="utf-8"?>
<!-- Generator: Adobe Illustrator 15.0.0, SVG Export Plug-In . SVG Version: 6.00 Build 0)  -->
<!DOCTYPE svg PUBLIC "-//W3C//DTD SVG 1.1//EN" "http://www.w3.org/Graphics/SVG/1.1/DTD/svg11.dtd">
<svg version="1.1" id="Layer_1" xmlns="http://www.w3.org/2000/svg" xmlns:xlink="http://www.w3.org/1999/xlink" x="0px" y="0px"
	 width="2118.212px" height="2118.212px" viewBox="-759.786 -759.786 2118.212 2118.212"
	 enable-background="new -759.786 -759.786 2118.212 2118.212" xml:space="preserve">
<g id="Layer_2">
</g>
<g id="Layer_3">
	<polygon fill="#070707" stroke="#070707" stroke-miterlimit="10" points="-2367,324.185 -2315.793,412.842 -2264.587,501.5 
		-2367,501.5 -2469.413,501.5 -2418.207,412.842 	"/>
	<g>
		<rect x="-2315.5" y="721.5" fill="#070707" stroke="#070707" stroke-miterlimit="10" width="48" height="208"/>
		<rect x="-2395.5" y="801.5" fill="#070707" stroke="#070707" stroke-miterlimit="10" width="208" height="48"/>
	</g>
	<line fill="none" x1="153" y1="300" x2="446" y2="300"/>
	<path fill="#FFAF1D" d="M437.584,1385.535H184.096L300,293.868L437.584,1385.535z"/>
	<path fill="#FFAF1D" d="M1088.5,1367.536l-324-9.11L296.867,294.439L1088.5,1367.536z"/>
	<path fill="#FFAF1D" d="M1453.033,793.064l-94.607,239.436L294.442,296.502L1453.033,793.064z"/>
	<path fill="#FFAF1D" d="M1453.033,167.597v265.227L293.369,299.5L1453.033,167.597z"/>
	<path fill="#FFAF1D" d="M1396.035-510.369l22.5,317.984L293.943,302.633L1396.035-510.369z"/>
	<path fill="#FFAF1D" d="M752.5-759.786h336L296.002,305.061L752.5-759.786z"/>
	<path fill="#FFAF1D" d="M184.096-759.786h236.988L299.002,306.13L184.096-759.786z"/>
	<path fill="#FFAF1D" d="M-517.873-802.858l320.984-35.998L300.799,302.756L-517.873-802.858z"/>
	<path fill="#FFAF1D" d="M-1047.347-295.884l229.489-238.488l1122.42,837.869L-1047.347-295.884z"/>
	<path fill="#FFAF1D" d="M-1291.834,491.578l43.499-370.701L305.629,299.876L-1291.834,491.578z"/>
	<path fill="#FFAF1D" d="M-948.351,1235.541l-247.488-287.984L304.562,296.502L-948.351,1235.541z"/>
	<path fill="#FFAF1D" d="M-173.5,1367.536l-302-9.11l778.497-1066.29L-173.5,1367.536z"/>
</g>
<circle fill="#FFAF1D" cx="302.997" cy="292.136" r="82.497"/>
</svg>
